HIERARCHY
ROOT mug2
{
	OFFSET 0.000000 0.000000 0.000000
	CHANNELS 6 Xposition Yposition Zposition Yrotation Xrotation Zrotation
	End Site
	{
		OFFSET 0.000000 0.000000 0.000000
	}
}
MOTION
Frames: 210
Frame Time: 0.008333334
0.794527 3.416567 3.395257 30.243310 1.158978 -1.033630 
0.794347 3.416619 3.395307 30.230520 1.156614 -1.058319 
0.794471 3.416553 3.395547 30.253450 1.162297 -1.024567 
0.794333 3.416699 3.395283 30.216880 1.203236 -1.082031 
0.794293 3.416822 3.395289 30.222490 1.135787 -1.097992 
0.794283 3.416743 3.394965 30.230970 1.173656 -1.081299 
0.794165 3.416641 3.394971 30.224460 1.120043 -1.079437 
0.794189 3.416711 3.394736 30.216330 1.114300 -1.086487 
0.794578 3.417374 3.394864 30.224050 0.978685 -1.219879 
0.794307 3.416660 3.394341 30.209230 1.128339 -1.096100 
0.794420 3.416439 3.393971 30.221090 1.178012 -1.065460 
0.794287 3.416252 3.393919 30.237050 1.151620 -1.063171 
0.794587 3.416354 3.393921 30.248830 1.139570 -1.067474 
0.794465 3.416317 3.394096 30.235340 1.152807 -1.058990 
0.794403 3.416398 3.394237 30.254170 1.137270 -1.057098 
0.794361 3.416642 3.394515 30.241470 1.134316 -1.077179 
0.794326 3.416698 3.394567 30.250530 1.125755 -1.047699 
0.794375 3.416796 3.394590 30.247700 1.138490 -1.061310 
0.794178 3.416694 3.394672 30.234180 1.164578 -1.017700 
0.794250 3.416725 3.395004 30.229340 1.151457 -1.063812 
0.794440 3.416677 3.394896 30.244290 1.147597 -1.094055 
0.794348 3.416682 3.395029 30.220540 1.163792 -1.078491 
0.794361 3.416719 3.394910 30.225600 1.163774 -1.067688 
0.794503 3.416911 3.394768 30.233620 1.160438 -1.031311 
0.794430 3.416826 3.394524 30.239520 1.152111 -1.084167 
0.794195 3.416838 3.394466 30.203030 1.121091 -1.098907 
0.794118 3.416386 3.394688 30.172470 1.161630 -1.130127 
0.794135 3.416466 3.394616 30.174610 1.158863 -1.148468 
0.794153 3.416547 3.394543 30.176760 1.156096 -1.166809 
0.794566 3.416820 3.394166 30.232360 1.114313 -1.110992 
0.794353 3.416523 3.394736 30.169790 1.136591 -1.161163 
0.794091 3.416432 3.394787 30.139760 1.165137 -1.200928 
0.794357 3.416710 3.394369 30.208850 1.144348 -1.102509 
0.794357 3.416555 3.394493 30.222160 1.151960 -1.057739 
0.794421 3.416789 3.394624 30.210760 1.123592 -1.095367 
0.794458 3.416694 3.394830 30.228510 1.132205 -1.047089 
0.794293 3.417009 3.394743 30.222450 1.127302 -1.073639 
0.794177 3.416660 3.395287 30.171720 1.156060 -1.162506 
0.794251 3.416640 3.395489 30.181120 1.115114 -1.157440 
0.794092 3.416624 3.395270 30.173540 1.120139 -1.157104 
0.794375 3.416817 3.394674 30.225930 1.172778 -1.069489 
0.794451 3.416673 3.394636 30.218660 1.164086 -1.089355 
0.794567 3.416866 3.394448 30.227750 1.126181 -1.112152 
0.794550 3.416631 3.394435 30.223950 1.168170 -1.075226 
0.794374 3.416705 3.394351 30.213690 1.127862 -1.085358 
0.794198 3.416779 3.394266 30.203430 1.087551 -1.095459 
0.794342 3.416592 3.394278 30.221750 1.117577 -1.090942 
0.794475 3.416808 3.394171 30.238250 1.107393 -1.078583 
0.794612 3.416822 3.394155 30.240690 1.156676 -1.080017 
0.794466 3.416638 3.394360 30.237580 1.161135 -1.093994 
0.794523 3.416685 3.394693 30.228610 1.136932 -1.104187 
0.794391 3.416864 3.394440 30.226360 1.125091 -1.111908 
0.794371 3.417020 3.394479 30.223720 1.138623 -1.136566 
0.794380 3.416913 3.394629 30.217770 1.119950 -1.145691 
0.794371 3.416939 3.394759 30.211500 1.086553 -1.126648 
0.794447 3.416855 3.394640 30.205340 1.127399 -1.106476 
0.794695 3.416719 3.394709 30.240220 1.107006 -1.110352 
0.794488 3.416928 3.394589 30.213930 1.081041 -1.120453 
0.794564 3.416878 3.394408 30.231750 1.103260 -1.130280 
0.794524 3.417155 3.394368 30.223940 1.053436 -1.153259 
0.794546 3.416893 3.394122 30.227470 1.083298 -1.117401 
0.794558 3.416969 3.394195 30.223000 1.097520 -1.119843 
0.794551 3.416707 3.394156 30.213890 1.146403 -1.081268 
0.794626 3.416779 3.394145 30.230900 1.140650 -1.105408 
0.794529 3.416707 3.394167 30.235060 1.134518 -1.073486 
0.794578 3.416904 3.394310 30.225830 1.099283 -1.123627 
0.794527 3.416812 3.394379 30.220710 1.101387 -1.119598 
0.794647 3.416778 3.394442 30.240190 1.124634 -1.062805 
0.794508 3.416966 3.394324 30.220210 1.110622 -1.085144 
0.794558 3.416839 3.394366 30.220110 1.101120 -1.086273 
0.794623 3.417153 3.394435 30.227720 1.051207 -1.125427 
0.794500 3.417083 3.394529 30.244670 1.085969 -1.080719 
0.794517 3.416981 3.394484 30.239520 1.082082 -1.071594 
0.794679 3.417229 3.394554 30.244020 1.069346 -1.106628 
0.794554 3.416919 3.394527 30.232130 1.113992 -1.123718 
0.794662 3.416698 3.394555 30.247410 1.107035 -1.087555 
0.794514 3.416796 3.394353 30.224210 1.115915 -1.114563 
0.794465 3.416857 3.394321 30.223960 1.081013 -1.116974 
0.794450 3.416564 3.394309 30.209440 1.148246 -1.081726 
0.794413 3.416687 3.394281 30.227170 1.104902 -1.094666 
0.794507 3.416875 3.394205 30.233430 1.090082 -1.116364 
0.794512 3.416783 3.394179 30.221700 1.113581 -1.087219 
0.794595 3.416965 3.394203 30.227700 1.096731 -1.119080 
0.794617 3.416941 3.394353 30.228860 1.101670 -1.119995 
0.794570 3.416730 3.394359 30.237540 1.132631 -1.087280 
0.794478 3.416824 3.394295 30.226210 1.123960 -1.090576 
0.794420 3.416762 3.394381 30.204180 1.151379 -1.123016 
0.794385 3.416788 3.394496 30.222160 1.084630 -1.134003 
0.794386 3.416930 3.394621 30.213620 1.050308 -1.156952 
0.794387 3.416653 3.394593 30.214320 1.147516 -1.086151 
0.794338 3.416879 3.394474 30.201570 1.125210 -1.102966 
0.794437 3.416921 3.394464 30.221870 1.116373 -1.104309 
0.794274 3.416878 3.394535 30.212260 1.115359 -1.105591 
0.794706 3.417290 3.394178 30.251930 1.077384 -1.029266 
0.794697 3.417280 3.394163 30.250760 1.076799 -1.029877 
0.794725 3.417048 3.394143 30.254850 1.121495 -1.047852 
0.794888 3.417024 3.394053 30.258210 1.121799 -1.058197 
0.794719 3.417370 3.394035 30.244110 1.075473 -1.076843 
0.794632 3.417117 3.393998 30.252740 1.106239 -1.036957 
0.794552 3.416957 3.394233 30.242400 1.141244 -0.988556 
0.794257 3.416890 3.394448 30.179360 1.131202 -1.065216 
0.794635 3.416949 3.394453 30.251600 1.075481 -1.079376 
0.794451 3.417002 3.394393 30.213640 1.135026 -1.070404 
0.794540 3.416801 3.394468 30.227650 1.160945 -1.040802 
0.794438 3.416715 3.394378 30.230620 1.158481 -1.044556 
0.794546 3.416812 3.394464 30.242000 1.105761 -1.090820 
0.794514 3.416846 3.394444 30.239200 1.124668 -1.087280 
0.794482 3.416879 3.394425 30.236390 1.143575 -1.083710 
0.794423 3.417071 3.394471 30.226770 1.114761 -1.049286 
0.794542 3.416977 3.394282 30.237320 1.125403 -1.065186 
0.794601 3.416767 3.394564 30.245440 1.096578 -1.080658 
0.794509 3.416926 3.394335 30.227270 1.119703 -1.106201 
0.794402 3.416712 3.394331 30.211790 1.138411 -1.085358 
0.794522 3.416768 3.394254 30.216680 1.122307 -1.082642 
0.794636 3.416699 3.394189 30.228030 1.101164 -1.121307 
0.794582 3.416763 3.394174 30.247670 1.084514 -1.107513 
0.794739 3.416745 3.394155 30.255820 1.159643 -1.034180 
0.794790 3.416965 3.394296 30.276330 1.131037 -0.971954 
0.794596 3.416818 3.394398 30.238380 1.141543 -1.105774 
0.794491 3.416916 3.394329 30.223860 1.090759 -1.114929 
0.794612 3.416771 3.394404 30.229670 1.134753 -1.112488 
0.794601 3.416935 3.394451 30.233160 1.117160 -1.058899 
0.794520 3.416902 3.394399 30.226050 1.110251 -1.072632 
0.794438 3.416869 3.394346 30.218930 1.103341 -1.086395 
0.794454 3.416919 3.394405 30.221410 1.101516 -1.103302 
0.794640 3.416634 3.394561 30.232190 1.166031 -1.089752 
0.794582 3.416935 3.394318 30.225460 1.106573 -1.128326 
0.794484 3.417015 3.394268 30.227120 1.099762 -1.111847 
0.794423 3.416902 3.394321 30.233930 1.084594 -1.089447 
0.794573 3.416956 3.394184 30.229730 1.086256 -1.085541 
0.794658 3.416804 3.394280 30.234780 1.128741 -1.072784 
0.794520 3.417038 3.394267 30.225850 1.107039 -1.126465 
0.794525 3.417034 3.394267 30.226760 1.107474 -1.124542 
0.794530 3.417030 3.394268 30.227660 1.107909 -1.122620 
0.794535 3.417027 3.394268 30.228590 1.108344 -1.120667 
0.794539 3.417022 3.394269 30.229490 1.108779 -1.118744 
0.794544 3.417019 3.394269 30.230400 1.109214 -1.116821 
0.794549 3.417015 3.394269 30.231310 1.109649 -1.114868 
0.794554 3.417011 3.394270 30.232220 1.110084 -1.112946 
0.794559 3.417007 3.394270 30.233130 1.110519 -1.111023 
0.794564 3.417003 3.394271 30.234030 1.110953 -1.109070 
0.794569 3.416999 3.394271 30.234940 1.111388 -1.107147 
0.794573 3.416995 3.394272 30.235850 1.111823 -1.105225 
0.794578 3.416991 3.394272 30.236770 1.112258 -1.103302 
0.794583 3.416987 3.394273 30.237670 1.112692 -1.101349 
0.794588 3.416983 3.394273 30.238580 1.113127 -1.099426 
0.794593 3.416979 3.394274 30.239490 1.113561 -1.097504 
0.794598 3.416975 3.394274 30.240400 1.113996 -1.095551 
0.794603 3.416971 3.394274 30.241310 1.114431 -1.093628 
0.794607 3.416967 3.394275 30.242220 1.114865 -1.091705 
0.794612 3.416964 3.394275 30.243120 1.115299 -1.089752 
0.794617 3.416960 3.394276 30.244030 1.115734 -1.087830 
0.794622 3.416956 3.394276 30.244960 1.116168 -1.085907 
0.794627 3.416952 3.394277 30.245860 1.116603 -1.083984 
0.794632 3.416948 3.394277 30.246770 1.117037 -1.082031 
0.794636 3.416944 3.394278 30.247680 1.117471 -1.080109 
0.794641 3.416940 3.394278 30.248590 1.117905 -1.078186 
0.794646 3.416936 3.394279 30.249490 1.118339 -1.076233 
0.794651 3.416932 3.394279 30.250400 1.118774 -1.074310 
0.794656 3.416928 3.394279 30.251310 1.119208 -1.072388 
0.794661 3.416924 3.394280 30.252220 1.119642 -1.070435 
0.794666 3.416920 3.394280 30.253130 1.120076 -1.068512 
0.794670 3.416917 3.394281 30.254040 1.120510 -1.066589 
0.794675 3.416913 3.394281 30.254950 1.120944 -1.064667 
0.794680 3.416909 3.394282 30.255860 1.121379 -1.062714 
0.794685 3.416905 3.394282 30.256770 1.121813 -1.060791 
0.794690 3.416901 3.394283 30.257670 1.122246 -1.058868 
0.794696 3.416697 3.394534 30.251910 1.140797 -1.033112 
0.794508 3.416772 3.394357 30.247450 1.150885 -1.047882 
0.794480 3.416669 3.394369 30.240470 1.141583 -1.037872 
0.794527 3.416909 3.394193 30.248780 1.100082 -1.040619 
0.794625 3.417009 3.394180 30.256880 1.090991 -1.077545 
0.794313 3.416940 3.394414 30.242530 1.148513 -1.029388 
0.794454 3.416724 3.394608 30.247050 1.120763 -1.066010 
0.794415 3.416932 3.394565 30.209260 1.129756 -1.110535 
0.794558 3.416821 3.394600 30.239480 1.135501 -1.095306 
0.794440 3.416768 3.394524 30.241990 1.132514 -1.073975 
0.794433 3.416698 3.394615 30.240580 1.130668 -1.076935 
0.794452 3.416618 3.394575 30.240810 1.119565 -1.074188 
0.794575 3.416862 3.394621 30.242130 1.096178 -1.086517 
0.794353 3.416789 3.394473 30.214820 1.160053 -1.070129 
0.794374 3.416705 3.394601 30.215330 1.153820 -1.091827 
0.794377 3.416669 3.394591 30.216280 1.149546 -1.079590 
0.794524 3.416722 3.394639 30.239840 1.108011 -1.085571 
0.794426 3.416697 3.394482 30.237330 1.144329 -1.068512 
0.794477 3.416951 3.394652 30.230030 1.118525 -1.111572 
0.794493 3.416609 3.394768 30.237610 1.150046 -1.053223 
0.794524 3.416837 3.394462 30.240240 1.153010 -1.090485 
0.794513 3.416561 3.394670 30.237370 1.156639 -1.058105 
0.794507 3.416681 3.394587 30.232360 1.145674 -1.102448 
0.794288 3.416588 3.394611 30.215630 1.152111 -1.062469 
0.794267 3.416682 3.394621 30.211860 1.121320 -1.073700 
0.794366 3.416736 3.394662 30.208510 1.125305 -1.101044 
0.794548 3.416672 3.394589 30.229960 1.140690 -1.097595 
0.794423 3.416541 3.394646 30.216380 1.188483 -1.067688 
0.794493 3.416800 3.394524 30.216380 1.123605 -1.118256 
0.794448 3.416651 3.394503 30.237960 1.146501 -1.078674 
0.794308 3.416665 3.394586 30.223790 1.165063 -1.056152 
0.794460 3.416807 3.394616 30.230590 1.107011 -1.105103 
0.794470 3.416741 3.394566 30.235860 1.131433 -1.083496 
0.794548 3.416747 3.394577 30.234340 1.136095 -1.098541 
0.794428 3.416888 3.394586 30.229690 1.095529 -1.115204 
0.794371 3.416703 3.394549 30.216020 1.157500 -1.080383 
0.794373 3.416882 3.394762 30.197730 1.075098 -1.126404 
0.794443 3.416633 3.394673 30.233450 1.152925 -1.047455 
0.794459 3.416852 3.394522 30.230480 1.093735 -1.114349 
0.794425 3.416633 3.394436 30.210840 1.155548 -1.092163 
0.794438 3.416713 3.394498 30.238060 1.139460 -1.086334 
0.794518 3.416622 3.394607 30.240350 1.167995 -1.084961 
0.794468 3.416946 3.394655 30.234620 1.097542 -1.118835 
